<svg id="svg" version="1.1" xmlns="http://www.w3.org/2000/svg" xmlns:xlink="http://www.w3.org/1999/xlink" width="400" height="400" viewBox="0, 0, 400,400"><g id="svgg"><path id="path0" d="M193.954 72.945 C 176.356 74.393,160.109 81.904,147.694 94.332 C 146.004 96.024,144.341 97.767,143.999 98.205 L 143.377 99.001 145.645 98.261 C 167.227 91.223,190.622 102.171,199.399 123.417 L 199.835 124.472 200.463 122.937 C 208.967 102.127,233.083 91.119,254.303 98.362 C 256.150 98.992,256.150 98.983,254.364 96.993 C 239.333 80.248,216.357 71.102,193.954 72.945 M154.127 107.019 C 141.871 108.963,130.934 118.042,128.316 128.446 C 117.801 170.219,145.738 212.566,188.105 219.074 C 237.846 226.715,280.193 184.368,272.438 134.741 C 271.892 131.245,270.584 125.798,270.023 124.680 C 262.093 108.888,242.482 102.232,226.488 109.904 C 215.605 115.125,208.413 125.732,207.762 137.524 C 207.660 139.365,199.371 173.704,199.028 173.704 C 198.755 173.704,191.960 139.212,191.854 137.287 C 190.819 118.556,172.757 104.065,154.127 107.019 M163.090 130.802 C 170.740 133.229,173.050 142.858,167.356 148.581 C 161.220 154.750,150.722 151.403,149.220 142.799 C 147.847 134.932,155.431 128.371,163.090 130.802 M243.293 130.870 C 252.303 134.007,253.139 146.371,244.626 150.587 C 235.874 154.921,226.504 146.524,229.758 137.264 C 231.628 131.945,237.887 128.988,243.293 130.870 M272.660 188.440 C 266.566 199.203,256.974 209.367,246.161 216.519 C 244.261 217.776,242.565 218.913,242.393 219.047 C 242.103 219.271,242.113 219.524,242.523 222.291 C 248.569 263.140,233.281 292.212,201.719 299.883 L 199.695 300.375 196.786 299.616 C 165.804 291.533,151.117 263.102,156.927 222.460 C 157.191 220.614,157.335 219.080,157.247 219.050 C 156.777 218.894,151.771 215.579,149.875 214.169 C 140.546 207.232,131.852 197.538,126.871 188.518 C 126.396 187.658,125.956 186.953,125.894 186.951 C 125.626 186.944,124.058 196.711,123.336 202.879 C 115.463 270.160,139.576 316.927,189.883 331.942 C 198.133 334.405,199.454 334.594,202.783 333.793 C 239.123 325.051,262.803 302.227,272.572 266.528 C 278.376 245.319,279.114 218.973,274.646 192.514 C 273.539 185.959,273.782 186.458,272.660 188.440 " stroke="none" fill="#040404" fill-rule="evenodd"></path><path id="path1" d="M189.443 5.384 C 81.042 11.556,-1.032 103.347,5.388 211.228 C 12.250 326.551,117.372 410.436,231.478 391.644 C 346.194 372.752,418.826 257.351,386.466 145.393 C 363.802 66.980,295.382 11.899,212.764 5.557 C 209.238 5.286,193.242 5.167,189.443 5.384 M203.935 72.746 C 221.119 73.818,236.524 80.303,249.370 91.873 C 251.431 93.729,256.311 98.839,256.164 98.987 C 256.132 99.018,255.199 98.747,254.091 98.384 C 235.595 92.325,215.059 99.532,204.366 115.835 C 202.955 117.986,200.746 122.208,200.174 123.848 C 200.036 124.244,199.871 124.568,199.808 124.568 C 199.745 124.568,199.579 124.244,199.440 123.848 C 192.113 103.057,166.975 91.250,145.357 98.448 C 142.603 99.365,142.564 99.438,147.488 94.513 C 162.779 79.221,182.964 71.437,203.935 72.746 M162.340 106.731 C 178.369 108.492,190.656 121.069,191.954 137.044 C 192.175 139.761,198.807 173.452,199.065 173.166 C 199.619 172.552,207.365 140.352,207.601 137.678 C 209.089 120.834,221.016 108.489,237.524 106.705 C 252.369 105.100,267.968 115.173,271.282 128.503 C 281.807 170.841,253.383 213.173,210.269 219.369 C 158.491 226.810,115.892 179.725,128.146 128.599 C 130.793 117.557,142.720 108.206,156.142 106.650 C 157.452 106.498,160.597 106.539,162.340 106.731 M157.774 130.540 C 153.941 131.154,150.257 134.761,149.418 138.722 C 147.216 149.110,159.805 155.986,167.294 148.486 C 174.683 141.085,168.204 128.870,157.774 130.540 M237.812 130.540 C 231.679 131.522,227.639 138.601,229.805 144.569 C 233.212 153.955,246.439 153.951,249.852 144.564 C 252.635 136.907,246.038 129.223,237.812 130.540 M126.871 188.340 C 133.702 200.437,143.310 210.181,156.835 218.726 L 157.529 219.164 157.365 220.187 C 150.599 262.298,165.783 292.122,197.904 299.812 L 199.743 300.252 201.935 299.712 C 233.145 292.026,247.984 264.001,242.502 223.096 C 242.245 221.177,242.035 219.488,242.035 219.341 C 242.035 219.195,242.920 218.526,244.002 217.855 C 255.639 210.642,265.312 200.707,272.383 188.706 L 273.665 186.529 273.890 187.554 C 276.141 197.831,277.617 213.262,277.615 226.488 C 277.603 284.658,251.832 321.852,203.277 333.775 C 199.395 334.728,200.080 334.751,195.129 333.501 C 142.151 320.127,116.042 274.454,122.761 206.910 C 123.440 200.076,125.469 186.564,125.815 186.564 C 125.845 186.564,126.320 187.363,126.871 188.340 " stroke="none" fill="#fbfbfb" fill-rule="evenodd"></path><path id="path2" d="M158.211 106.667 C 158.716 106.707,159.493 106.706,159.939 106.666 C 160.384 106.626,159.971 106.593,159.021 106.594 C 158.071 106.595,157.707 106.628,158.211 106.667 M239.875 106.666 C 240.324 106.707,241.058 106.707,241.507 106.666 C 241.955 106.626,241.588 106.593,240.691 106.593 C 239.794 106.593,239.427 106.626,239.875 106.666 M191.983 138.964 C 191.983 139.333,192.023 139.484,192.071 139.299 C 192.119 139.115,192.119 138.812,192.071 138.628 C 192.023 138.443,191.983 138.594,191.983 138.964 M273.396 146.449 C 273.396 147.874,273.426 148.457,273.463 147.745 C 273.500 147.032,273.500 145.866,273.463 145.154 C 273.426 144.441,273.396 145.024,273.396 146.449 M121.926 219.578 C 121.926 219.947,121.965 220.098,122.013 219.914 C 122.062 219.729,122.062 219.427,122.013 219.242 C 121.965 219.057,121.926 219.208,121.926 219.578 M198.312 220.104 C 199.020 220.141,200.229 220.141,200.999 220.104 C 201.769 220.068,201.190 220.038,199.712 220.037 C 198.234 220.037,197.604 220.067,198.312 220.104 M277.595 226.488 C 277.595 226.963,277.633 227.157,277.679 226.919 C 277.724 226.682,277.724 226.293,277.679 226.056 C 277.633 225.818,277.595 226.012,277.595 226.488 M121.926 233.205 C 121.926 233.575,121.965 233.726,122.013 233.541 C 122.062 233.357,122.062 233.054,122.013 232.869 C 121.965 232.685,121.926 232.836,121.926 233.205 M277.396 234.357 C 277.396 234.726,277.435 234.878,277.484 234.693 C 277.532 234.508,277.532 234.206,277.484 234.021 C 277.435 233.836,277.396 233.988,277.396 234.357 M243.639 238.772 C 243.639 239.774,243.672 240.185,243.711 239.683 C 243.751 239.182,243.751 238.361,243.711 237.860 C 243.672 237.358,243.639 237.769,243.639 238.772 " stroke="none" fill="#848484" fill-rule="evenodd"></path><path id="path3" d="M198.520 72.695 C 199.237 72.732,200.360 72.732,201.016 72.695 C 201.671 72.657,201.084 72.627,199.712 72.627 C 198.340 72.628,197.803 72.658,198.520 72.695 M250.480 92.951 C 250.480 92.980,251.149 93.649,251.967 94.439 L 253.455 95.873 252.020 94.386 C 250.688 93.004,250.480 92.811,250.480 92.951 M158.116 96.303 C 158.674 96.342,159.537 96.341,160.035 96.302 C 160.533 96.263,160.077 96.231,159.021 96.231 C 157.965 96.232,157.558 96.264,158.116 96.303 M239.683 96.303 C 240.238 96.342,241.144 96.342,241.699 96.303 C 242.253 96.264,241.799 96.232,240.691 96.232 C 239.583 96.232,239.129 96.264,239.683 96.303 M273.365 143.378 C 273.365 143.748,273.405 143.899,273.453 143.714 C 273.501 143.529,273.501 143.227,273.453 143.042 C 273.405 142.857,273.365 143.009,273.365 143.378 M125.987 146.353 C 125.988 147.831,126.018 148.410,126.054 147.640 C 126.091 146.870,126.091 145.661,126.054 144.953 C 126.017 144.245,125.987 144.875,125.987 146.353 M147.505 198.464 C 148.344 199.309,149.074 200.000,149.127 200.000 C 149.180 200.000,148.536 199.309,147.697 198.464 C 146.857 197.620,146.127 196.929,146.074 196.929 C 146.021 196.929,146.665 197.620,147.505 198.464 M259.107 205.902 L 258.445 206.622 259.165 205.960 C 259.835 205.345,259.973 205.182,259.827 205.182 C 259.794 205.182,259.471 205.506,259.107 205.902 M121.926 218.426 C 121.926 218.796,121.965 218.947,122.013 218.762 C 122.062 218.577,122.062 218.275,122.013 218.090 C 121.965 217.905,121.926 218.057,121.926 218.426 M202.543 220.094 C 202.728 220.142,203.030 220.142,203.215 220.094 C 203.400 220.046,203.249 220.006,202.879 220.006 C 202.510 220.006,202.358 220.046,202.543 220.094 M277.613 223.896 C 277.614 224.952,277.646 225.359,277.685 224.802 C 277.724 224.244,277.723 223.380,277.684 222.882 C 277.645 222.384,277.613 222.841,277.613 223.896 M121.752 226.392 C 121.753 227.131,121.788 227.409,121.829 227.011 C 121.871 226.613,121.870 226.008,121.828 225.668 C 121.785 225.327,121.751 225.653,121.752 226.392 M277.612 228.983 C 277.612 229.986,277.645 230.396,277.684 229.894 C 277.724 229.393,277.724 228.572,277.684 228.071 C 277.645 227.570,277.612 227.980,277.612 228.983 M155.903 234.261 C 155.905 234.683,155.944 234.833,155.990 234.595 C 156.036 234.356,156.034 234.010,155.986 233.827 C 155.938 233.643,155.900 233.839,155.903 234.261 M121.926 234.357 C 121.926 234.726,121.965 234.878,122.013 234.693 C 122.062 234.508,122.062 234.206,122.013 234.021 C 121.965 233.836,121.926 233.988,121.926 234.357 M155.899 243.186 C 155.899 243.556,155.938 243.707,155.986 243.522 C 156.035 243.337,156.035 243.035,155.986 242.850 C 155.938 242.666,155.899 242.817,155.899 243.186 M148.656 307.294 C 149.069 307.716,149.449 308.061,149.502 308.061 C 149.555 308.061,149.261 307.716,148.848 307.294 C 148.436 306.871,148.055 306.526,148.003 306.526 C 147.950 306.526,148.244 306.871,148.656 307.294 M152.495 311.132 C 152.908 311.555,153.288 311.900,153.341 311.900 C 153.394 311.900,153.099 311.555,152.687 311.132 C 152.275 310.710,151.894 310.365,151.841 310.365 C 151.789 310.365,152.083 310.710,152.495 311.132 " stroke="none" fill="#a4a4a4" fill-rule="evenodd"></path><path id="path4" d="M209.783 108.973 L 208.541 110.269 209.837 109.027 C 211.040 107.873,211.220 107.678,211.079 107.678 C 211.049 107.678,210.466 108.261,209.783 108.973 M182.246 116.315 C 182.766 116.843,183.234 117.274,183.287 117.274 C 183.340 117.274,182.958 116.843,182.438 116.315 C 181.918 115.787,181.449 115.355,181.396 115.355 C 181.344 115.355,181.726 115.787,182.246 116.315 M217.169 116.363 L 216.411 117.179 217.226 116.420 C 217.985 115.714,218.130 115.547,217.985 115.547 C 217.954 115.547,217.587 115.914,217.169 116.363 M170.496 140.979 C 170.498 141.507,170.535 141.700,170.579 141.408 C 170.623 141.116,170.622 140.684,170.577 140.448 C 170.531 140.212,170.495 140.451,170.496 140.979 M229.031 140.979 C 229.033 141.401,229.073 141.551,229.118 141.313 C 229.164 141.074,229.163 140.728,229.115 140.545 C 229.067 140.361,229.029 140.557,229.031 140.979 M250.532 141.075 C 250.532 141.550,250.570 141.744,250.615 141.507 C 250.661 141.269,250.661 140.881,250.615 140.643 C 250.570 140.405,250.532 140.600,250.532 141.075 M148.989 141.075 C 148.989 141.444,149.028 141.595,149.077 141.411 C 149.125 141.226,149.125 140.924,149.077 140.739 C 149.028 140.554,148.989 140.705,148.989 141.075 M251.722 198.512 L 250.384 199.904 251.775 198.566 C 253.068 197.322,253.255 197.121,253.114 197.121 C 253.085 197.121,252.458 197.747,251.722 198.512 M260.545 204.463 L 259.981 205.086 260.605 204.523 C 261.186 203.997,261.317 203.839,261.168 203.839 C 261.135 203.839,260.855 204.119,260.545 204.463 M140.211 205.950 C 140.731 206.478,141.200 206.910,141.252 206.910 C 141.305 206.910,140.923 206.478,140.403 205.950 C 139.883 205.422,139.415 204.990,139.362 204.990 C 139.309 204.990,139.691 205.422,140.211 205.950 M257.665 207.342 L 257.102 207.965 257.726 207.402 C 258.307 206.876,258.438 206.718,258.289 206.718 C 258.256 206.718,257.976 206.999,257.665 207.342 M277.404 219.578 C 277.404 220.053,277.441 220.247,277.487 220.010 C 277.532 219.772,277.532 219.383,277.487 219.146 C 277.441 218.908,277.404 219.103,277.404 219.578 M121.936 221.017 C 121.937 221.545,121.975 221.738,122.019 221.446 C 122.063 221.155,122.062 220.723,122.016 220.487 C 121.971 220.251,121.934 220.489,121.936 221.017 M121.936 231.766 C 121.937 232.294,121.975 232.487,122.019 232.195 C 122.063 231.903,122.062 231.471,122.016 231.235 C 121.971 230.999,121.934 231.238,121.936 231.766 M277.400 233.109 C 277.402 233.532,277.441 233.682,277.487 233.443 C 277.533 233.204,277.531 232.859,277.483 232.675 C 277.435 232.492,277.398 232.687,277.400 233.109 M243.628 236.084 C 243.628 236.665,243.664 236.903,243.708 236.612 C 243.752 236.322,243.752 235.847,243.708 235.557 C 243.664 235.266,243.628 235.504,243.628 236.084 M155.733 238.772 C 155.733 239.880,155.765 240.333,155.804 239.779 C 155.842 239.225,155.842 238.318,155.804 237.764 C 155.765 237.210,155.733 237.663,155.733 238.772 M243.628 241.459 C 243.628 242.039,243.664 242.277,243.708 241.987 C 243.752 241.696,243.752 241.221,243.708 240.931 C 243.664 240.641,243.628 240.878,243.628 241.459 M150.576 309.213 C 151.203 309.846,151.759 310.365,151.811 310.365 C 151.864 310.365,151.395 309.846,150.768 309.213 C 150.141 308.580,149.585 308.061,149.532 308.061 C 149.479 308.061,149.949 308.580,150.576 309.213 " stroke="none" fill="#747474" fill-rule="evenodd"></path></g></svg>